<?xml version="1.0" encoding="utf-8"?>
<!-- Designed by Vexels.com - 2020 All Rights Reserved - https://vexels.com/terms-and-conditions/  -->
<svg version="1.1" id="Layer_1" xmlns="http://www.w3.org/2000/svg" xmlns:xlink="http://www.w3.org/1999/xlink" x="0px" y="0px"
	 viewBox="0 0 1200 1200" enable-background="new 0 0 1200 1200" xml:space="preserve">
<g>
	<path fill="#ED2F2F" d="M517.436,685.542H229.704c-8.554,0-15.494-6.94-15.494-15.494s6.94-15.494,15.494-15.494h240.529
		c-3.49-7.225-5.616-15.228-5.616-23.789v-56.891H229.704c-8.554,0-15.494-6.94-15.494-15.494s6.94-15.494,15.494-15.494h234.912
		V355.315H105.007C74.629,355.315,50,379.943,50,410.322v419.539c0,30.374,24.624,54.997,54.997,54.997h66.315
		c1.856,0,3.359,1.504,3.359,3.359v66.598v68.703c0,25.453,31.211,37.708,48.528,19.055l45.366-48.861l118.276-118.266
		c0.817-0.339,1.543-0.639,2.363-0.978h260.013c30.373,0,54.997-24.623,54.997-54.997v-133.71H519.613
		C518.869,685.761,518.175,685.571,517.436,685.542z"/>
	<path fill="#08175B" d="M214.209,670.047c0,8.554,6.94,15.494,15.494,15.494h287.733c-20.863-0.83-38.617-13.21-47.204-30.989
		H229.704C221.149,654.553,214.209,661.493,214.209,670.047z"/>
	<path fill="#08175B" d="M214.209,558.379c0,8.554,6.94,15.494,15.494,15.494h234.912v-30.989H229.704
		C221.149,542.885,214.209,549.825,214.209,558.379z"/>
	<path fill="#FF7F29" d="M1094.993,148.421h-575.38c-30.373,0-54.997,24.623-54.997,54.997v151.897v187.569v30.989v56.891
		c0,8.561,2.126,16.564,5.616,23.789c8.587,17.779,26.341,30.158,47.204,30.989c0.739,0.03,1.432,0.219,2.176,0.219h184.601h53.333
		c0.83,0.344,48.934,0.647,49.762,0.991l103.346,120.846l53.58,53.58c15.083,15.082,40.867,4.319,40.748-17.01l-0.434-78.03v-64.035
		c0-1.855,1.506-3.359,3.359-3.359h87.085c30.381,0,55.007-24.628,55.007-55.007V203.428
		C1150,173.048,1125.374,148.421,1094.993,148.421z M981.872,493.675H641.127c-8.554,0-15.494-6.94-15.494-15.494
		c0-8.554,6.94-15.494,15.494-15.494h340.745c8.554,0,15.494,6.94,15.494,15.494C997.366,486.735,990.426,493.675,981.872,493.675z
		 M981.872,382.007H641.127c-8.554,0-15.494-6.94-15.494-15.494s6.94-15.494,15.494-15.494h340.745
		c8.554,0,15.494,6.94,15.494,15.494S990.426,382.007,981.872,382.007z"/>
	<path fill="#08175B" d="M981.872,462.687H641.127c-8.554,0-15.494,6.94-15.494,15.494c0,8.554,6.94,15.494,15.494,15.494h340.745
		c8.554,0,15.494-6.94,15.494-15.494C997.366,469.627,990.426,462.687,981.872,462.687z"/>
	<path fill="#08175B" d="M981.872,351.018H641.127c-8.554,0-15.494,6.94-15.494,15.494s6.94,15.494,15.494,15.494h340.745
		c8.554,0,15.494-6.94,15.494-15.494S990.426,351.018,981.872,351.018z"/>
</g>
</svg>
